<svg width="78" height="105" viewBox="0 0 78 105" fill="none" xmlns="http://www.w3.org/2000/svg">
<path d="M31.8496 68.008C31.8496 63.016 32.9536 58.888 35.1616 55.624C37.4656 52.36 40.7776 48.76 45.0976 44.824C48.2656 41.944 50.5696 39.544 52.0096 37.624C53.5456 35.608 54.3136 33.352 54.3136 30.856C54.3136 27.304 52.8736 24.52 49.9936 22.504C47.2096 20.392 43.4656 19.336 38.7616 19.336C34.2496 19.336 30.2176 20.296 26.6656 22.216C23.2096 24.04 20.2816 26.632 17.8816 29.992L0.457562 19.768C4.48956 13.624 9.91356 8.872 16.7296 5.51199C23.6416 2.152 31.8016 0.471998 41.2096 0.471998C52.2496 0.471998 61.0816 2.824 67.7056 7.52799C74.4256 12.232 77.7856 18.76 77.7856 27.112C77.7856 31.048 77.1136 34.504 75.7696 37.48C74.5216 40.456 72.9376 43 71.0176 45.112C69.1936 47.128 66.7936 49.48 63.8176 52.168C60.2656 55.336 57.6736 58.024 56.0416 60.232C54.4096 62.344 53.5936 64.936 53.5936 68.008H31.8496ZM42.7936 104.152C38.8576 104.152 35.5456 102.904 32.8576 100.408C30.2656 97.816 28.9696 94.696 28.9696 91.048C28.9696 87.4 30.2656 84.376 32.8576 81.976C35.4496 79.48 38.7616 78.232 42.7936 78.232C46.8256 78.232 50.1376 79.48 52.7296 81.976C55.3216 84.376 56.6176 87.4 56.6176 91.048C56.6176 94.696 55.2736 97.816 52.5856 100.408C49.9936 102.904 46.7296 104.152 42.7936 104.152Z" fill="black"/>
</svg>
